<svg width="48" height="20" viewBox="0 0 48 20" fill="none" xmlns="http://www.w3.org/2000/svg">
<path d="M8.57812 18L7.46094 14.8281H3.09375L1.97656 18H0L4.25 6.53125H6.32812L10.5703 18H8.57812ZM6.97656 13.2188L5.89062 10.0938C5.84896 9.95833 5.78906 9.76823 5.71094 9.52344C5.63281 9.27344 5.55469 9.02083 5.47656 8.76562C5.39844 8.50521 5.33333 8.28646 5.28125 8.10938C5.22917 8.32292 5.16406 8.5625 5.08594 8.82812C5.01302 9.08854 4.9401 9.33333 4.86719 9.5625C4.79948 9.79167 4.7474 9.96875 4.71094 10.0938L3.61719 13.2188H6.97656ZM25.457 18L24.0605 14.0352H18.6016L17.2051 18H14.7344L20.0469 3.66406H22.6445L27.9473 18H25.457ZM23.4551 12.0234L22.0977 8.11719C22.0456 7.94792 21.9707 7.71029 21.873 7.4043C21.7754 7.0918 21.6777 6.77604 21.5801 6.45703C21.4824 6.13151 21.401 5.85807 21.3359 5.63672C21.2708 5.90365 21.1895 6.20312 21.0918 6.53516C21.0007 6.86068 20.9095 7.16667 20.8184 7.45312C20.7337 7.73958 20.6686 7.96094 20.623 8.11719L19.2559 12.0234H23.4551ZM44.9805 18L43.3047 13.2422H36.7539L35.0781 18H32.1133L38.4883 0.796875H41.6055L47.9688 18H44.9805ZM42.5781 10.8281L40.9492 6.14062C40.8867 5.9375 40.7969 5.65234 40.6797 5.28516C40.5625 4.91016 40.4453 4.53125 40.3281 4.14844C40.2109 3.75781 40.1133 3.42969 40.0352 3.16406C39.957 3.48438 39.8594 3.84375 39.7422 4.24219C39.6328 4.63281 39.5234 5 39.4141 5.34375C39.3125 5.6875 39.2344 5.95312 39.1797 6.14062L37.5391 10.8281H42.5781Z" fill="#004684"/>
<path d="M0 18.9766H10.5781V19.3672H0V18.9766Z" fill="#004684"/>
</svg>
